<?xml version="1.0" encoding="iso-8859-1"?>
<!-- Uploaded to: SVG Repo, www.svgrepo.com, Generator: SVG Repo Mixer Tools -->
<svg height="20x" width="20px" version="1.1" id="Layer_1" xmlns="http://www.w3.org/2000/svg" xmlns:xlink="http://www.w3.org/1999/xlink" 
	 viewBox="0 0 512 512" xml:space="preserve">
<path style="fill:#E0E0E2;" d="M69.803,512h372.364c12.853,0,23.273-10.42,23.273-23.273V179.02
	c-0.321,12.573-10.589,22.672-23.242,22.672c-0.012,0-0.022,0-0.031,0h-23.273H287.015c-12.853,0-23.273-10.42-23.273-23.273V46.545
	V23.273c0-9.413,5.669-17.9,14.367-21.501c2.991-1.238,6.135-1.801,9.247-1.753C287.241,0.016,287.13,0,287.015,0H69.803
	C56.95,0,46.53,10.42,46.53,23.273v465.455C46.53,501.58,56.95,512,69.803,512z M255.086,255.738
	c4.329-4.344,10.332-6.827,16.46-6.827c6.113,0,12.119,2.482,16.448,6.827c4.344,4.329,6.825,10.333,6.825,16.446
	c0,6.128-2.482,12.133-6.825,16.462c-4.329,4.329-10.318,6.811-16.448,6.811c-6.128,0-12.131-2.482-16.46-6.811
	c-4.329-4.329-6.813-10.318-6.813-16.462C248.273,266.054,250.757,260.067,255.086,255.738z M139.621,383.089
	c0-5.88,2.226-11.543,6.232-15.85l41.322-44.426c8.128-8.741,21.552-9.913,31.075-2.715l60.261,45.556l30.129-18.283
	c9.97-6.049,22.874-3.787,30.189,5.286l12.763,15.824c3.337,4.138,5.157,9.294,5.157,14.611v12.546
	c0,12.853-10.42,23.273-23.273,23.273H162.894c-12.853,0-23.273-10.42-23.273-23.273V383.089z"/>
<g>
	<path style="fill:#57565C;" d="M271.546,295.457c6.128,0,12.119-2.482,16.448-6.811c4.344-4.329,6.825-10.333,6.825-16.462
		c0-6.113-2.482-12.117-6.825-16.446c-4.329-4.344-10.333-6.827-16.448-6.827c-6.128,0-12.131,2.482-16.46,6.827
		c-4.329,4.329-6.813,10.318-6.813,16.446c0,6.144,2.484,12.133,6.813,16.462C259.415,292.974,265.418,295.457,271.546,295.457z"/>
	<path style="fill:#57565C;" d="M162.894,418.909h170.581c12.853,0,23.273-10.42,23.273-23.273v-12.546
		c0-5.315-1.82-10.473-5.157-14.611l-12.763-15.824c-7.315-9.075-20.219-11.335-30.189-5.286l-30.129,18.283l-60.261-45.556
		c-9.525-7.197-22.947-6.026-31.075,2.715l-41.322,44.426c-4.006,4.305-6.232,9.968-6.232,15.85v12.547
		C139.621,408.489,150.041,418.909,162.894,418.909z"/>
</g>
<path style="fill:#C6C5CA;" d="M263.742,23.273v23.273V178.42c0,12.853,10.42,23.273,23.273,23.273h131.879h23.273
	c0.009,0,0.019,0,0.031,0c12.653,0,22.921-10.1,23.242-22.672c0.005-0.202,0.031-0.397,0.031-0.6c0-4.824-1.488-9.289-4-13.005
	c-0.003-0.003-0.005-0.006-0.008-0.011c-0.397-0.588-0.824-1.153-1.271-1.7c-0.037-0.045-0.071-0.092-0.109-0.135
	c-0.424-0.51-0.875-1.001-1.339-1.474c-0.073-0.073-0.144-0.147-0.217-0.22c-0.205-0.2-0.394-0.419-0.605-0.613L303.472,6.816
	c-0.483-0.484-0.991-0.936-1.508-1.37c-0.157-0.13-0.315-0.253-0.475-0.379c-0.377-0.299-0.763-0.59-1.159-0.867
	c-0.189-0.132-0.377-0.264-0.571-0.389c-0.414-0.272-0.839-0.526-1.269-0.773c-0.166-0.095-0.327-0.197-0.493-0.285
	c-0.563-0.303-1.142-0.579-1.733-0.835c-0.231-0.101-0.47-0.188-0.704-0.281c-0.393-0.155-0.79-0.303-1.193-0.436
	c-0.27-0.088-0.537-0.175-0.807-0.254c-0.453-0.132-0.912-0.248-1.376-0.354c-0.197-0.045-0.393-0.101-0.591-0.14
	c-0.65-0.13-1.311-0.228-1.978-0.301c-0.2-0.023-0.4-0.036-0.602-0.053c-0.546-0.047-1.098-0.076-1.655-0.084
	c-3.112-0.047-6.256,0.515-9.247,1.753C269.413,5.373,263.742,13.86,263.742,23.273z"/>
</svg>